<mxfile host="www.draw.io" modified="2019-11-20T02:48:10.038Z" agent="Mozilla/5.0 (Windows NT 10.0; Win64; x64) AppleWebKit/537.36 (KHTML, like Gecko) Chrome/70.0.3538.77 Safari/537.36" etag="yJiMa9CV1tv8-ZjCKG7g" version="12.2.7" type="github" pages="1">
  <diagram id="iLftCC6ujXBr6WRsfD6I" name="Page-1">
    <mxGraphModel dx="942" dy="575" grid="1" gridSize="10" guides="1" tooltips="1" connect="1" arrows="1" fold="1" page="1" pageScale="1" pageWidth="827" pageHeight="1169" math="0" shadow="0">
      <root>
        <mxCell id="0"/>
        <mxCell id="1" parent="0"/>
        <mxCell id="nQt_klSs-zEt3SgCWr4J-1" value="阿里云" style="rounded=0;whiteSpace=wrap;html=1;" parent="1" vertex="1">
          <mxGeometry x="310" y="110" width="120" height="90" as="geometry"/>
        </mxCell>
        <mxCell id="0aN4uhRUtjuzkkHIGuZI-1" value="树莓派" style="rounded=0;whiteSpace=wrap;html=1;" vertex="1" parent="1">
          <mxGeometry x="310" y="240" width="120" height="90" as="geometry"/>
        </mxCell>
        <mxCell id="0aN4uhRUtjuzkkHIGuZI-2" value="盆1" style="rounded=0;whiteSpace=wrap;html=1;" vertex="1" parent="1">
          <mxGeometry x="70" y="364" width="120" height="90" as="geometry"/>
        </mxCell>
        <mxCell id="0aN4uhRUtjuzkkHIGuZI-3" value="盆2" style="rounded=0;whiteSpace=wrap;html=1;" vertex="1" parent="1">
          <mxGeometry x="310" y="364" width="120" height="90" as="geometry"/>
        </mxCell>
        <mxCell id="0aN4uhRUtjuzkkHIGuZI-4" value="盆n" style="rounded=0;whiteSpace=wrap;html=1;" vertex="1" parent="1">
          <mxGeometry x="580" y="364" width="120" height="90" as="geometry"/>
        </mxCell>
      </root>
    </mxGraphModel>
  </diagram>
</mxfile>
